<svg version="1.1" xmlns="http://www.w3.org/2000/svg" width="460" height="161">
<style>#f{fill:#fff}#d{fill:#ffd64f}#l{fill:#ffd64f}</style>
<g><g id="f"><path d="M35.604 114.352c.157-2.092-.382-4.329.421-6.292 1.933-1.227 4.424-1.168 6.621-1.778 1.784.234 1.106-1.543 1.218-2.676v-62.315c-2.751-1.107-8.545.099-8.259-4.192v-4.068h60.256v19.624c-2.118-.069-4.262.147-6.361-.125-2.83-2.294-1.401-6.868-2.25-10.126-.472-.971-2.542-.204-3.681-.448h-28.729v28.438h30.987v8.924h-30.987v26.717c2.687 1.133 8.036-.025 8.26 3.844v4.473h-27.495z"/><path if="m" d="M101.735 114.352c.136-1.969-.303-4.043.282-5.933 1.156-1.548 3.346-1.224 5.03-1.756.877-.377 2.574-.081 2.892-.917v-40.618c-2.566-1.011-6.394-.133-8.079-2.653-.267-1.843-.06-3.739-.125-5.605h18.293v49.224c2.566 1.013 6.393.134 8.078 2.654.268 1.843.06 3.74.126 5.605h-26.497zm6.761-72.784c-2.296-4.664 2.114-10.755 7.271-9.998 4.919.293 8.278 6.375 5.645 10.619-2.011 3.823-7.609 5.083-10.875 2.102-.886-.729-1.569-1.682-2.041-2.723z"/><path d="M134.718 114.352c.053-1.89-.116-3.799.104-5.675.799-1.778 3.063-1.411 4.651-1.944l3.394-.696v-67.018c-2.61-.93-6.328-.188-8.045-2.585-.219-1.876-.052-3.785-.104-5.675h18.238v75.277c2.575 1.14 6.943.068 8.231 3.016.062 1.765.011 3.533.028 5.299-8.832.001-17.667-.001-26.497.001z"/><path d="M165.261 63.076v-3.991l9.471-.887c.8-6.153 1.515-12.32 2.368-18.465.767-2.186 3.376-1.398 5.149-1.546.947.126 2.671-.525 2.193 1.026v19.096h16.52v6.985h-16.52c.018 11.869-.036 23.739.027 35.607-.102 3.391 2.73 6.557 6.237 6.3 3.126.569 5.276-3.044 8.038-2.698 1.478 1.669 2.379 3.794 3.603 5.664-5.484 4.816-13.738 6.453-20.593 3.878-5.371-2.096-7.577-8.183-7.401-13.553v-35.198c-2.582-.071-5.191.15-7.753-.125-.963-.223-1.412-1.164-1.337-2.093z"/><path d="M207.501 84.289c-.097-9.05 3.574-18.62 11.317-23.774 9.078-6.131 22.062-6.246 30.99.225 7.068 5.225 9.793 14.65 8.824 23.109-.227 2.238-2.722 1.737-4.311 1.789h-36.732c.053 7.063 2.244 15.033 8.595 18.968 5.685 3.332 12.97 3.161 18.934.636 2.953-.736 5.109-3.535 8.198-3.653 1.849.285 2.598 2.256 3.81 3.472 1.917 1.281-.486 2.531-1.496 3.566-6.901 5.348-16.081 7.188-24.651 6.264-8.237-.808-15.91-5.898-19.652-13.311-2.825-5.29-3.854-11.342-3.827-17.29zm10.422-5.637h31.265c.152-5.866-2.688-12.244-8.355-14.595-5.024-1.93-11.084-1.502-15.647 1.422-4.37 2.928-6.624 8.097-7.263 13.173z"/><path d="M264.764 114.352c.102-1.998-.235-4.061.234-6.006.945-1.353 2.843-1.102 4.277-1.568l3.637-.753v-41.16c-2.393-.461-4.885-.552-7.212-1.27-1.468-.994-.771-2.972-.936-4.467.22-.679-.484-2.281.436-2.26 4.757.024 9.518-.048 14.273.037 2.271.078 2.425 2.654 2.497 4.39l.531 6.964c2.784-5.702 7.617-11.029 14.138-12.14 3.796-.686 7.904-.27 11.251 1.747-.501 2.621-.853 5.281-1.45 7.877-1.713 2.667-4.855-.761-7.311-.347-4.955-.542-9.934 1.895-12.764 5.956-1.39 1.967-2.716 4.119-3.364 6.429v28.244c2.584.842 5.914.451 7.961 2.322.48 1.942.139 4.008.242 6.005h-26.441z"/></g><path id="d" d="M316.668 105.527c2.002.911 2.51 3.057 1.128 4.769l-4.844 6.001c-1.382 1.712-3.644 1.712-5.025 0l-4.845-6.001c-1.382-1.712-.874-3.858 1.128-4.769l2.589-1.178c2.002-.911 5.279-.911 7.281 0l2.588 1.178z"/><g id="l"><path d="M328.292 114.352v-4.878c0-1.183.555-1.885 1.663-2.106l6.485-1.331v-67.019c-.924-.185-1.931-.378-3.021-.582-1.091-.203-1.895-.36-2.411-.471l-1.054-.222c-1.108-.222-1.663-.923-1.663-2.106v-4.878h18.237v75.278c3.659.74 5.82 1.184 6.486 1.331 1.182.222 1.773.924 1.773 2.106v4.878h-26.495z"/><path d="M359.058 61.746v-4.878h25.776c-.174 2.088.411 4.342-.43 6.292-1.477 2.072-8.016.117-7.084 2.905 4.211 10.001 8.549 19.952 12.679 29.985.693 1.612 1.075 6.108 1.785 2.093 2.727-7.547 6.039-14.871 9.023-22.32 1.494-3.62 2.988-7.241 4.481-10.861-2.549-1.04-7.507.22-7.816-3.415v-4.678h25.499c-.174 2.088.411 4.342-.43 6.292-2.086 2.049-6.822.006-7.828 3.031l-27.995 65.118c-.88 2.614-3.742 2.607-6.005 2.499h-5.082l10.478-22.819-20.178-46.235c-2.068-.837-6.772.137-6.874-3.007z"/></g></g></svg>